<?xml version="1.0" standalone="no"?>

<svg version="1.0" xmlns="http://www.w3.org/2000/svg"
 width="96.000000pt" height="96.000000pt" viewBox="0 0 96.000000 96.000000"
 preserveAspectRatio="xMidYMid meet">

<g transform="translate(0.000000,96.000000) scale(0.100000,-0.100000)"
fill="grey" stroke="none">
<path d="M557 842 c-21 -23 -21 -36 -2 -52 8 -7 15 -16 15 -20 0 -3 -54 -51
-121 -104 l-121 -98 -29 28 c-31 30 -50 28 -73 -9 -9 -14 2 -30 64 -92 l75
-75 -123 -123 c-96 -97 -122 -128 -122 -150 0 -23 4 -27 27 -27 22 0 53 26
150 122 l123 123 75 -75 75 -75 27 28 27 27 -26 27 -26 28 94 119 c52 66 97
122 99 125 3 2 14 -4 24 -13 18 -17 21 -17 45 -1 14 10 26 22 26 29 0 14 -262
276 -276 276 -6 0 -18 -8 -27 -18z"/>
</g>
</svg>
